<svg width="378" height="377" viewBox="0 0 378 377" version="2.0" xmlns="http://www.w3.org/2000/svg" xmlns:xlink="http://www.w3.org/1999/xlink" xmlns:figma="http://www.figma.com/figma/ns"><title>clipboard.svg</title><desc>Created using Figma 0.90</desc><g id="Canvas" transform="translate(2294 -359)" figma:type="canvas"><g id="Develop" style="mix-blend-mode:normal;" figma:type="group"><g id="Rectangle 2" style="mix-blend-mode:normal;" figma:type="rounded-rectangle"><use xlink:href="#path0_fill" transform="translate(-2266 386)" fill="#2CF6B3" style="mix-blend-mode:normal;"/></g><g id="Rectangle 2" style="mix-blend-mode:normal;" figma:type="rounded-rectangle"><mask id="mask0_outline_ins"><use xlink:href="#path0_fill" fill="white" transform="translate(-2294 359.412)"/></mask><g mask="url(#mask0_outline_ins)"><use xlink:href="#path1_stroke_2x" transform="translate(-2294 359.412)" fill="#111111" style="mix-blend-mode:normal;"/></g></g><g id="&#60;_&#62;" style="mix-blend-mode:normal;" figma:type="group"><g id="Line 6" style="mix-blend-mode:normal;" figma:type="vector"><use xlink:href="#path2_stroke" transform="matrix(0.707107 0.707107 -0.704976 0.709231 -2162.18 490.55)" fill="#111111" style="mix-blend-mode:normal;"/></g><g id="&#62;" style="mix-blend-mode:normal;" figma:type="group"><g id="Line 6" style="mix-blend-mode:normal;" figma:type="line"><use xlink:href="#path3_stroke" transform="matrix(0.707107 0.707107 -0.706131 0.708081 -2066.29 490.608)" fill="#111111" style="mix-blend-mode:normal;"/></g><g id="Line 6" style="mix-blend-mode:normal;" figma:type="line"><use xlink:href="#path4_stroke" transform="matrix(0.707107 -0.707107 0.704976 0.709231 -2059.46 571.377)" fill="#111111" style="mix-blend-mode:normal;"/></g></g><g id="&#62;" style="mix-blend-mode:normal;" figma:type="group"><g id="Line 6" style="mix-blend-mode:normal;" figma:type="line"><use xlink:href="#path3_stroke" transform="matrix(-0.707107 -0.707107 0.706131 -0.708081 -2171.56 571.359)" fill="#111111" style="mix-blend-mode:normal;"/></g><g id="Line 6" style="mix-blend-mode:normal;" figma:type="line"><use xlink:href="#path4_stroke" transform="matrix(-0.707107 0.707107 -0.704976 -0.709231 -2178.54 490.517)" fill="#111111" style="mix-blend-mode:normal;"/></g></g></g></g></g><defs><path id="path0_fill" d="M 0 0L 350 0L 350 350L 0 350L 0 0Z"/><path id="path1_stroke_2x" d="M 0 0L 0 -10L -10 -10L -10 0L 0 0ZM 350 0L 360 0L 360 -10L 350 -10L 350 0ZM 350 350L 350 360L 360 360L 360 350L 350 350ZM 0 350L -10 350L -10 360L 0 360L 0 350ZM 0 10L 350 10L 350 -10L 0 -10L 0 10ZM 340 0L 340 350L 360 350L 360 0L 340 0ZM 350 340L 0 340L 0 360L 350 360L 350 340ZM 10 350L 10 0L -10 0L -10 350L 10 350Z"/><path id="path2_stroke" d="M 3.14283e-05 5.00078L 124.109 5L 124.109 -5L -3.14283e-05 -4.99922L 3.14283e-05 5.00078Z"/><path id="path3_stroke" d="M 0 0L 62.0547 0L 62.0547 -10L 0 -10L 0 0Z"/><path id="path4_stroke" d="M 0 0L 62.0548 0L 62.0548 -10L 0 -10L 0 0Z"/></defs></svg>
