<svg width="378" height="377" viewBox="0 0 378 377" version="2.0" xmlns="http://www.w3.org/2000/svg" xmlns:xlink="http://www.w3.org/1999/xlink" xmlns:figma="http://www.figma.com/figma/ns"><title>clipboard.svg</title><desc>Created using Figma 0.90</desc><g id="Canvas" transform="translate(738 -181)" figma:type="canvas"><g id="Glass" style="mix-blend-mode:normal;" figma:type="group"><g id="Background" style="mix-blend-mode:normal;" figma:type="group"><g style="mix-blend-mode:normal;" figma:type="rounded-rectangle"><use xlink:href="#path0_fill" transform="translate(-710 207.588)" fill="#2CF6B3" style="mix-blend-mode:normal;"/></g><g id="Rectangle 2" style="mix-blend-mode:normal;" figma:type="rounded-rectangle"><mask id="mask0_outline_ins"><use xlink:href="#path0_fill" fill="white" transform="translate(-738 181)"/></mask><g mask="url(#mask0_outline_ins)"><use xlink:href="#path1_stroke_2x" transform="translate(-738 181)" fill="#111111" style="mix-blend-mode:normal;"/></g></g></g><g id="Magnifying Glass" style="mix-blend-mode:normal;" figma:type="group"><g id="Line 2" style="mix-blend-mode:normal;" figma:type="line"><use xlink:href="#path2_stroke" transform="matrix(0.707107 0.707107 -0.709288 0.704919 -547.605 374.145)" fill="#111111" style="mix-blend-mode:normal;"/></g><g id="Ellipse" style="mix-blend-mode:normal;" figma:type="ellipse"><mask id="mask1_outline_ins"><use xlink:href="#path3_fill" fill="white" transform="translate(-649.105 267.145)"/></mask><g mask="url(#mask1_outline_ins)"><use xlink:href="#path4_stroke_2x" transform="translate(-649.105 267.145)" fill="#111111" style="mix-blend-mode:normal;"/></g></g></g></g></g><defs><path id="path0_fill" d="M 0 0L 350 0L 350 350L 0 350L 0 0Z"/><path id="path1_stroke_2x" d="M 0 0L 0 -10L -10 -10L -10 0L 0 0ZM 350 0L 360 0L 360 -10L 350 -10L 350 0ZM 350 350L 350 360L 360 360L 360 350L 350 350ZM 0 350L -10 350L -10 360L 0 360L 0 350ZM 0 10L 350 10L 350 -10L 0 -10L 0 10ZM 340 0L 340 350L 360 350L 360 0L 340 0ZM 350 340L 0 340L 0 360L 350 360L 350 340ZM 10 350L 10 0L -10 0L -10 350L 10 350Z"/><path id="path2_stroke" d="M 5 -10L 0 -10L 0 0L 5 0L 5 -10ZM 95 0L 100 0L 100 -10L 95 -10L 95 0ZM 5 0L 95 0L 95 -10L 5 -10L 5 0Z"/><path id="path3_fill" d="M 123.848 61.733C 123.848 95.8272 96.1237 123.466 61.924 123.466C 27.7243 123.466 0 95.8272 0 61.733C 0 27.6388 27.7243 0 61.924 0C 96.1237 0 123.848 27.6388 123.848 61.733Z"/><path id="path4_stroke_2x" d="M 113.848 61.733C 113.848 90.2753 90.63 113.466 61.924 113.466L 61.924 133.466C 101.617 133.466 133.848 101.379 133.848 61.733L 113.848 61.733ZM 61.924 113.466C 33.218 113.466 10 90.2753 10 61.733L -10 61.733C -10 101.379 22.2306 133.466 61.924 133.466L 61.924 113.466ZM 10 61.733C 10 33.1908 33.218 10 61.924 10L 61.924 -10C 22.2306 -10 -10 22.0869 -10 61.733L 10 61.733ZM 61.924 10C 90.63 10 113.848 33.1908 113.848 61.733L 133.848 61.733C 133.848 22.0869 101.617 -10 61.924 -10L 61.924 10Z"/></defs></svg>
