<svg xmlns="http://www.w3.org/2000/svg" width="241" height="241" viewBox="0 0 241 241" version="2" xmlns:xlink="http://www.w3.org/1999/xlink"><g><g style="mix-blend-mode:normal"><g style="mix-blend-mode:normal" transform="translate(-116 -573)"><mask id="b"><use fill="#fff" xlink:href="#a" transform="translate(116 573)"/></mask><g mask="url(#b)"><use fill="#111" xlink:href="#c" transform="translate(116 573)" style="mix-blend-mode:normal"/></g></g><g style="mix-blend-mode:normal" transform="translate(-116 -573)"><use fill="#111" xlink:href="#d" transform="rotate(45 -729.425 652.862)" style="mix-blend-mode:normal"/></g><g style="mix-blend-mode:normal" transform="translate(-116 -573)"><use fill="#111" xlink:href="#e" transform="rotate(120 -102.187 345.002)" style="mix-blend-mode:normal"/></g></g></g><defs><path id="a" d="M156 78c0 43.078-34.922 78-78 78-43.0782 0-78-34.922-78-78C0 34.9218 34.9218 0 78 0c43.078 0 78 34.9218 78 78z"/><path id="c" d="M153 78c0 41.421-33.579 75-75 75v6c44.735 0 81-36.265 81-81h-6zm-75 75c-41.4214 0-75-33.579-75-75h-6c0 44.735 36.2649 81 81 81v-6zM3 78C3 36.5786 36.5786 3 78 3v-6C33.2649-3-3 33.2649-3 78h6zM78 3c41.421 0 75 33.5786 75 75h6c0-44.7351-36.265-81-81-81v6z"/><path id="d" d="M1.5-3H0v3h1.5v-3zm147 3h1.5v-3h-1.5v3zM1.5 0h147v-3H1.5v3z"/><path id="e" d="M.386955-.922099l-.922099-.386951L-1.30905.535144l.922095.386955.77391-1.844198zM30.1926 2.01637l.951-.30925-.6185-1.901964-.951.30925.6185 1.901964zM-.386955.922099C7.02383 4.01432 14.7351 4.30368 20.4574 3.80717c2.8776-.25175 5.3217-.6993 7.0114-1.07816.8523-.19133 1.5352-.36961 1.9924-.49684.2321-.06461.4154-.1186.5352-.15486.0616-.01863.1107-.03387.142-.04368.0164-.00516.03-.00948.0382-.01212.0046-.00145.0086-.00274.0108-.00347.0014-.00043.0027-.00085.0033-.00106.0005-.00014.0009-.00029.0011-.00036.0005-.00014.0008-.00025-.3084-.95123-.3093-.950984-.3091-.95106-.3089-.951118 0 .000007.0001-.000032.0001-.00002-.0003.000088-.0004.000124-.0009.000299-.0015.000476-.0031.000994-.0061.001931-.0066.002128-.0153.004904-.0285.009039-.028.008778-.0671.020921-.1219.0375-.1129.034168-.2747.081882-.4922.142393-.4419.123014-1.0756.288681-1.8939.472099-1.6514.370647-3.9636.795877-6.7472 1.037197C14.6838 2.30433 7.45342 2.061.386955-.922099L-.386955.922099z"/></defs></svg>
