
<svg width="116px" height="100px" viewBox="1522 -97 116 100" version="1.1" xmlns="http://www.w3.org/2000/svg" xmlns:xlink="http://www.w3.org/1999/xlink">
    <defs></defs>
    <g id="LaunchScreen" stroke="none" stroke-width="1" fill="none" fill-rule="evenodd" transform="translate(1530.000000, -97.000000)">
        <rect id="Background" fill="#131313" x="0" y="0" width="100" height="100"></rect>
        <g id="S" transform="translate(23.437500, 12.890625)" fill="#0197F6">
            <path d="M42.5365409,70.0781715 C40.8619966,70.5338645 39.0998891,70.7770864 37.2809707,70.7770864 C26.2544771,70.7770864 17.3157379,61.8388648 17.3157379,50.8130096 C17.3157379,39.7871544 26.2544771,30.8489327 37.2809707,30.8489327 C39.0998891,30.8489327 40.8619966,31.0921546 42.5365409,31.5478477 L42.5365409,70.0781715 Z" id="Combined-Shape-Copy" transform="translate(29.926139, 50.813010) rotate(225.000000) translate(-29.926139, -50.813010) "></path>
            <path d="M35.6693461,42.3047384 C33.9948019,42.7604333 32.2326944,43.0036562 30.413776,43.0036562 C19.3872824,43.0036562 10.4485432,34.0653984 10.4485432,23.0394986 C10.4485432,12.0135988 19.3872824,3.07534101 30.413776,3.07534101 C32.2326944,3.07534101 33.9948019,3.31856389 35.6693461,3.77425881 L35.6693461,42.3047384 Z" id="Combined-Shape" transform="translate(23.058945, 23.039499) rotate(45.000000) translate(-23.058945, -23.039499) "></path>
        </g>
    </g>
</svg>