<svg width="378" height="378" viewBox="0 0 378 378" version="2.0" xmlns="http://www.w3.org/2000/svg" xmlns:xlink="http://www.w3.org/1999/xlink" xmlns:figma="http://www.figma.com/figma/ns"><title>minimal.svg</title><g id="Canvas" transform="translate(1322 658)" figma:type="canvas"><g id="Minimal" style="mix-blend-mode:normal;" figma:type="group"><g id="Background" style="mix-blend-mode:normal;" figma:type="group"><g style="mix-blend-mode:normal;" figma:type="rounded-rectangle"><use xlink:href="#path0_fill" transform="translate(-1294 -630.5)" fill="#2CF6B3" style="mix-blend-mode:normal;"/></g><g id="Rectangle 2" style="mix-blend-mode:normal;" figma:type="rounded-rectangle"><mask id="mask0_outline_ins"><use xlink:href="#path0_fill" fill="white" transform="translate(-1322 -657.088)"/></mask><g mask="url(#mask0_outline_ins)"><use xlink:href="#path1_stroke_2x" transform="translate(-1322 -657.088)" fill="#111111" style="mix-blend-mode:normal;"/></g></g></g><g id="Lines" style="mix-blend-mode:normal;" figma:type="group"><g id="Line 4" style="mix-blend-mode:normal;" figma:type="line"><use xlink:href="#path2_stroke" transform="translate(-1242 -534.588)" fill="#111111" style="mix-blend-mode:normal;"/></g><g id="Line 4" style="mix-blend-mode:normal;" figma:type="line"><use xlink:href="#path3_stroke" transform="translate(-1242 -499.588)" fill="#111111" style="mix-blend-mode:normal;"/></g><g id="Line 4" style="mix-blend-mode:normal;" figma:type="line"><use xlink:href="#path4_stroke" transform="translate(-1242 -464.588)" fill="#111111" style="mix-blend-mode:normal;"/></g><g id="Line 4" style="mix-blend-mode:normal;" figma:type="line"><use xlink:href="#path5_stroke" transform="translate(-1242 -429.588)" fill="#111111" style="mix-blend-mode:normal;"/></g></g></g></g><defs><path id="path0_fill" d="M 0 0L 350 0L 350 350L 0 350L 0 0Z"/><path id="path1_stroke_2x" d="M 0 0L 0 -10L -10 -10L -10 0L 0 0ZM 350 0L 360 0L 360 -10L 350 -10L 350 0ZM 350 350L 350 360L 360 360L 360 350L 350 350ZM 0 350L -10 350L -10 360L 0 360L 0 350ZM 0 10L 350 10L 350 -10L 0 -10L 0 10ZM 340 0L 340 350L 360 350L 360 0L 340 0ZM 350 340L 0 340L 0 360L 350 360L 350 340ZM 10 350L 10 0L -10 0L -10 350L 10 350Z"/><path id="path2_stroke" d="M 0 0L 190 0L 190 -10L 0 -10L 0 0Z"/><path id="path3_stroke" d="M 0 0L 100 0L 100 -10L 0 -10L 0 0Z"/><path id="path4_stroke" d="M 0 0L 150 0L 150 -10L 0 -10L 0 0Z"/><path id="path5_stroke" d="M 0 0L 125 0L 125 -10L 0 -10L 0 0Z"/></defs></svg>
