<svg width="378" height="377" viewBox="0 0 378 377" version="2.0" xmlns="http://www.w3.org/2000/svg" xmlns:xlink="http://www.w3.org/1999/xlink" xmlns:figma="http://www.figma.com/figma/ns"><title>share.svg</title><g id="Canvas" transform="translate(3498 -1083)" figma:type="canvas"><g id="Share" style="mix-blend-mode:normal;" figma:type="group"><g id="Background" style="mix-blend-mode:normal;" figma:type="group"><g style="mix-blend-mode:normal;" figma:type="rounded-rectangle"><use xlink:href="#path0_fill" transform="translate(-3470 1109.59)" fill="#2CF6B3" style="mix-blend-mode:normal;"/></g><g id="Rectangle 2" style="mix-blend-mode:normal;" figma:type="rounded-rectangle"><mask id="mask0_outline_ins"><use xlink:href="#path0_fill" fill="white" transform="translate(-3498 1083)"/></mask><g mask="url(#mask0_outline_ins)"><use xlink:href="#path1_stroke_2x" transform="translate(-3498 1083)" fill="#111111" style="mix-blend-mode:normal;"/></g></g></g><g id="Megaphone" style="mix-blend-mode:normal;" figma:type="group"><g id="Rectangle 4" style="mix-blend-mode:normal;" figma:type="vector"><mask id="mask1_outline_ins"><use xlink:href="#path2_fill" fill="white" transform="translate(-3414 1209.4)"/></mask><g mask="url(#mask1_outline_ins)"><use xlink:href="#path3_stroke_2x" transform="translate(-3414 1209.4)" fill="#111111" style="mix-blend-mode:normal;"/></g></g><g id="Rectangle 3" style="mix-blend-mode:normal;" figma:type="vector"><mask id="mask2_outline_ins"><use xlink:href="#path4_fill" fill="white" transform="translate(-3401.36 1263.9)"/></mask><g mask="url(#mask2_outline_ins)"><use xlink:href="#path5_stroke_2x" transform="translate(-3401.36 1263.9)" fill="#111111" style="mix-blend-mode:normal;"/></g></g><g id="Rectangle 5" style="mix-blend-mode:normal;" figma:type="vector"><mask id="mask3_outline_ins"><use xlink:href="#path6_fill" fill="white" transform="translate(-3326.79 1178)"/></mask><g mask="url(#mask3_outline_ins)"><use xlink:href="#path7_stroke_2x" transform="translate(-3326.79 1178)" fill="#111111" style="mix-blend-mode:normal;"/></g></g></g></g></g><defs><path id="path0_fill" d="M 0 0L 350 0L 350 350L 0 350L 0 0Z"/><path id="path1_stroke_2x" d="M 0 0L 0 -10L -10 -10L -10 0L 0 0ZM 350 0L 360 0L 360 -10L 350 -10L 350 0ZM 350 350L 350 360L 360 360L 360 350L 350 350ZM 0 350L -10 350L -10 360L 0 360L 0 350ZM 0 10L 350 10L 350 -10L 0 -10L 0 10ZM 340 0L 340 350L 360 350L 360 0L 340 0ZM 350 340L 0 340L 0 360L 350 360L 350 340ZM 10 350L 10 0L -10 0L -10 350L 10 350Z"/><path id="path2_fill" d="M 0 5C 0 2.23858 2.23858 0 5 0L 99.8472 0L 99.8472 64.056L 5 64.056C 2.23858 64.056 0 61.8174 0 59.056L 0 5Z"/><path id="path3_stroke_2x" d="M 99.8472 0L 109.847 0L 109.847 -10L 99.8472 -10L 99.8472 0ZM 99.8472 64.056L 99.8472 74.056L 109.847 74.056L 109.847 64.056L 99.8472 64.056ZM 5 10L 99.8472 10L 99.8472 -10L 5 -10L 5 10ZM 89.8472 0L 89.8472 64.056L 109.847 64.056L 109.847 0L 89.8472 0ZM 99.8472 54.056L 5 54.056L 5 74.056L 99.8472 74.056L 99.8472 54.056ZM 10 59.056L 10 5L -10 5L -10 59.056L 10 59.056ZM 5 -10C -3.28427 -10 -10 -3.28427 -10 5L 10 5C 10 7.76142 7.76142 10 5 10L 5 -10ZM 5 54.056C 7.76142 54.056 10 56.2946 10 59.056L -10 59.056C -10 67.3403 -3.28427 74.056 5 74.056L 5 54.056Z"/><path id="path4_fill" d="M 0 0L 60.0429 0L 74.5694 74.104L 14.5265 74.104L 0 0Z"/><path id="path5_stroke_2x" d="M 0 0L 0 -10L -12.1506 -10L -9.81323 1.92368L 0 0ZM 60.0429 0L 69.8562 -1.92368L 68.273 -10L 60.0429 -10L 60.0429 0ZM 74.5694 74.104L 74.5694 84.104L 86.7201 84.104L 84.3827 72.1803L 74.5694 74.104ZM 14.5265 74.104L 4.71329 76.0277L 6.29648 84.104L 14.5265 84.104L 14.5265 74.104ZM 0 10L 60.0429 10L 60.0429 -10L 0 -10L 0 10ZM 50.2297 1.92368L 64.7562 76.0277L 84.3827 72.1803L 69.8562 -1.92368L 50.2297 1.92368ZM 74.5694 64.104L 14.5265 64.104L 14.5265 84.104L 74.5694 84.104L 74.5694 64.104ZM 24.3397 72.1803L 9.81323 -1.92368L -9.81323 1.92368L 4.71329 76.0277L 24.3397 72.1803Z"/><path id="path6_fill" d="M 0 31.4L 94.7917 0L 94.7917 126.856L 0 95.456L 0 31.4Z"/><path id="path7_stroke_2x" d="M 0 31.4L -3.1445 21.9073L -10 24.1782L -10 31.4L 0 31.4ZM 94.7917 0L 104.792 0L 104.792 -13.8469L 91.6472 -9.49274L 94.7917 0ZM 94.7917 126.856L 91.6472 136.349L 104.792 140.703L 104.792 126.856L 94.7917 126.856ZM 0 95.456L -10 95.456L -10 102.678L -3.1445 104.949L 0 95.456ZM 3.1445 40.8927L 97.9362 9.49274L 91.6472 -9.49274L -3.1445 21.9073L 3.1445 40.8927ZM 84.7917 0L 84.7917 126.856L 104.792 126.856L 104.792 0L 84.7917 0ZM 97.9362 117.363L 3.1445 85.9633L -3.1445 104.949L 91.6472 136.349L 97.9362 117.363ZM 10 95.456L 10 31.4L -10 31.4L -10 95.456L 10 95.456Z"/></defs></svg>
