<svg width="273" height="176" viewBox="0 0 273 176" version="2.0" xmlns="http://www.w3.org/2000/svg" xmlns:xlink="http://www.w3.org/1999/xlink"><title>stats.svg</title><g id="Canvas" transform="translate(1699 -62)" type="canvas"><g id="Stats" style="mix-blend-mode:normal;" type="group"><g id="Line 5" style="mix-blend-mode:normal;" type="line"><use xlink:href="#path0_stroke" transform="matrix(0.707107 -0.707107 0.707107 0.707107 -1695.88 237.579)" fill="#111111" style="mix-blend-mode:normal;"/></g><g id="Line 5" style="mix-blend-mode:normal;" type="line"><use xlink:href="#path0_stroke" transform="matrix(0.707107 -0.707107 0.707107 0.707107 -1533 170.5)" fill="#111111" style="mix-blend-mode:normal;"/></g><g id="Line 5" style="mix-blend-mode:normal;" type="line"><use xlink:href="#path1_stroke" transform="matrix(0.700785 0.713373 -0.713373 0.700785 -1586.88 126.781)" fill="#111111" style="mix-blend-mode:normal;"/></g><g id="Ellipse 2" style="mix-blend-mode:normal;" type="ellipse"><use xlink:href="#path2_fill" transform="translate(-1593.38 119.281)" fill="#F5F5F5" style="mix-blend-mode:normal;"/><mask id="mask0_outline_ins"><use xlink:href="#path2_fill" fill="white" transform="translate(-1593.38 119.281)"/></mask><g mask="url(#mask0_outline_ins)"><use xlink:href="#path3_stroke_2x" transform="translate(-1593.38 119.281)" fill="#111111" style="mix-blend-mode:normal;"/></g></g><g id="Ellipse 2" style="mix-blend-mode:normal;" type="ellipse"><use xlink:href="#path2_fill" transform="translate(-1547.2 166.297)" fill="#F5F5F5" style="mix-blend-mode:normal;"/><mask id="mask1_outline_ins"><use xlink:href="#path2_fill" fill="white" transform="translate(-1547.2 166.297)"/></mask><g mask="url(#mask1_outline_ins)"><use xlink:href="#path3_stroke_2x" transform="translate(-1547.2 166.297)" fill="#111111" style="mix-blend-mode:normal;"/></g></g></g></g><defs><path id="path0_stroke" d="M 0 0L 150 0L 150 -3L 0 -3L 0 0Z"/><path id="path1_stroke" d="M 0 0L 65.9064 0L 65.9064 -3L 0 -3L 0 0Z"/><path id="path2_fill" d="M 15 7.5C 15 11.6421 11.6421 15 7.5 15C 3.35786 15 0 11.6421 0 7.5C 0 3.35786 3.35786 0 7.5 0C 11.6421 0 15 3.35786 15 7.5Z"/><path id="path3_stroke_2x" d="M 12 7.5C 12 9.98528 9.98528 12 7.5 12L 7.5 18C 13.299 18 18 13.299 18 7.5L 12 7.5ZM 7.5 12C 5.01472 12 3 9.98528 3 7.5L -3 7.5C -3 13.299 1.70101 18 7.5 18L 7.5 12ZM 3 7.5C 3 5.01472 5.01472 3 7.5 3L 7.5 -3C 1.70101 -3 -3 1.70101 -3 7.5L 3 7.5ZM 7.5 3C 9.98528 3 12 5.01472 12 7.5L 18 7.5C 18 1.70101 13.299 -3 7.5 -3L 7.5 3Z"/></defs></svg>
