<svg width="379" height="377" viewBox="0 0 379 377" version="2.0" xmlns="http://www.w3.org/2000/svg" xmlns:xlink="http://www.w3.org/1999/xlink" xmlns:figma="http://www.figma.com/figma/ns"><title>stats.svg</title><g id="Canvas" transform="translate(1737 4)" figma:type="canvas"><g id="Stats" style="mix-blend-mode:normal;" figma:type="group"><g id="Background" style="mix-blend-mode:normal;" figma:type="group"><g style="mix-blend-mode:normal;" figma:type="rounded-rectangle"><use xlink:href="#path0_fill" transform="translate(-1708.2 22.8394)" fill="#2CF6B3" style="mix-blend-mode:normal;"/></g><g id="Rectangle 2" style="mix-blend-mode:normal;" figma:type="rounded-rectangle"><mask id="mask0_outline_ins"><use xlink:href="#path0_fill" fill="white" transform="translate(-1736.2 -3.74815)"/></mask><g mask="url(#mask0_outline_ins)"><use xlink:href="#path1_stroke_2x" transform="translate(-1736.2 -3.74815)" fill="#111111" style="mix-blend-mode:normal;"/></g></g></g><g id="Line" style="mix-blend-mode:normal;" figma:type="group"><g id="Line 5" style="mix-blend-mode:normal;" figma:type="line"><use xlink:href="#path2_stroke" transform="matrix(0.703952 -0.710247 0.703952 0.710247 -1668.19 236.183)" fill="#111111" style="mix-blend-mode:normal;"/></g><g id="Line 5" style="mix-blend-mode:normal;" figma:type="line"><use xlink:href="#path2_stroke" transform="matrix(0.703952 -0.710247 0.703952 0.710247 -1535.91 188.752)" fill="#111111" style="mix-blend-mode:normal;"/></g><g id="Line 5" style="mix-blend-mode:normal;" figma:type="line"><use xlink:href="#path3_stroke" transform="matrix(0.697603 0.716484 -0.710247 0.703953 -1585.97 153.752)" fill="#111111" style="mix-blend-mode:normal;"/></g><g id="Ellipse 2" style="mix-blend-mode:normal;" figma:type="ellipse"><use xlink:href="#path4_fill" transform="translate(-1550.91 181.252)" fill="#2CF6B3" style="mix-blend-mode:normal;"/><mask id="mask1_outline_ins"><use xlink:href="#path4_fill" fill="white" transform="translate(-1550.91 181.252)"/></mask><g mask="url(#mask1_outline_ins)"><use xlink:href="#path5_stroke_2x" transform="translate(-1550.91 181.252)" fill="#111111" style="mix-blend-mode:normal;"/></g></g><g id="Ellipse 2" style="mix-blend-mode:normal;" figma:type="ellipse"><use xlink:href="#path4_fill" transform="translate(-1593.98 138.752)" fill="#2CF6B3" style="mix-blend-mode:normal;"/><mask id="mask2_outline_ins"><use xlink:href="#path4_fill" fill="white" transform="translate(-1593.98 138.752)"/></mask><g mask="url(#mask2_outline_ins)"><use xlink:href="#path5_stroke_2x" transform="translate(-1593.98 138.752)" fill="#111111" style="mix-blend-mode:normal;"/></g></g></g></g></g><defs><path id="path0_fill" d="M 0 0L 350 0L 350 350L 0 350L 0 0Z"/><path id="path1_stroke_2x" d="M 0 0L 0 -10L -10 -10L -10 0L 0 0ZM 350 0L 360 0L 360 -10L 350 -10L 350 0ZM 350 350L 350 360L 360 360L 360 350L 350 350ZM 0 350L -10 350L -10 360L 0 360L 0 350ZM 0 10L 350 10L 350 -10L 0 -10L 0 10ZM 340 0L 340 350L 360 350L 360 0L 340 0ZM 350 340L 0 340L 0 360L 350 360L 350 340ZM 10 350L 10 0L -10 0L -10 350L 10 350Z"/><path id="path2_stroke" d="M 0 0L 116.06 0L 116.06 -10L 0 -10L 0 0Z"/><path id="path3_stroke" d="M 0 0L 50.9979 0L 50.9979 -10L 0 -10L 0 0Z"/><path id="path4_fill" d="M 15 7.5C 15 11.6421 11.6421 15 7.5 15C 3.35786 15 0 11.6421 0 7.5C 0 3.35786 3.35786 0 7.5 0C 11.6421 0 15 3.35786 15 7.5Z"/><path id="path5_stroke_2x" d="M 5 7.5C 5 6.11929 6.11929 5 7.5 5L 7.5 25C 17.165 25 25 17.165 25 7.5L 5 7.5ZM 7.5 5C 8.88071 5 10 6.11929 10 7.5L -10 7.5C -10 17.165 -2.16498 25 7.5 25L 7.5 5ZM 10 7.5C 10 8.88071 8.88071 10 7.5 10L 7.5 -10C -2.16498 -10 -10 -2.16498 -10 7.5L 10 7.5ZM 7.5 10C 6.11929 10 5 8.88071 5 7.5L 25 7.5C 25 -2.16498 17.165 -10 7.5 -10L 7.5 10Z"/></defs></svg>
